<svg width="22" height="22" viewBox="0 0 22 22" fill="none" xmlns="http://www.w3.org/2000/svg">
<path d="M10.1279 13.7041L8.43203 15.3999C8.07453 15.7574 7.5062 15.7574 7.13953 15.4091C7.0387 15.3083 6.93786 15.2166 6.83703 15.1158C5.89286 14.1624 5.04036 13.1633 4.27953 12.1183C3.52786 11.0733 2.92286 10.0283 2.48286 8.99242C2.05203 7.94742 1.83203 6.94825 1.83203 5.99492C1.83203 5.37159 1.94203 4.77575 2.16203 4.22575C2.38203 3.66659 2.73036 3.15325 3.2162 2.69492C3.80286 2.11742 4.44453 1.83325 5.12286 1.83325C5.37953 1.83325 5.6362 1.88825 5.86536 1.99825C6.1037 2.10825 6.31453 2.27325 6.47953 2.51159L8.6062 5.50909C8.7712 5.73825 8.89036 5.94909 8.97286 6.15075C9.05536 6.34325 9.1012 6.53575 9.1012 6.70992C9.1012 6.92992 9.03703 7.14992 8.9087 7.36075C8.78953 7.57159 8.61536 7.79159 8.39536 8.01159L7.6987 8.73575C7.59786 8.83659 7.55203 8.95575 7.55203 9.10242C7.55203 9.17575 7.5612 9.23992 7.57953 9.31325C7.60703 9.38659 7.63453 9.44159 7.65286 9.49659C7.81786 9.79909 8.10203 10.1933 8.50536 10.6699C8.91786 11.1466 9.35786 11.6324 9.83453 12.1183C9.9262 12.2099 10.027 12.3016 10.1187 12.3933C10.4854 12.7508 10.4945 13.3374 10.1279 13.7041Z" fill="white"/>
<path d="M20.1399 16.8025C20.1399 17.0592 20.0941 17.325 20.0024 17.5817C19.9749 17.655 19.9474 17.7283 19.9108 17.8017C19.7549 18.1317 19.5533 18.4433 19.2874 18.7367C18.8383 19.2317 18.3433 19.5892 17.7841 19.8183C17.7749 19.8183 17.7658 19.8275 17.7566 19.8275C17.2158 20.0475 16.6291 20.1667 15.9966 20.1667C15.0616 20.1667 14.0624 19.9467 13.0083 19.4975C11.9541 19.0483 10.8999 18.4433 9.85495 17.6825C9.49745 17.4167 9.13995 17.1508 8.80078 16.8667L11.7983 13.8692C12.0549 14.0617 12.2841 14.2083 12.4766 14.3092C12.5224 14.3275 12.5774 14.355 12.6416 14.3825C12.7149 14.41 12.7883 14.4192 12.8708 14.4192C13.0266 14.4192 13.1458 14.3642 13.2466 14.2633L13.9433 13.5758C14.1724 13.3467 14.3924 13.1725 14.6033 13.0625C14.8141 12.9342 15.0249 12.87 15.2541 12.87C15.4283 12.87 15.6116 12.9067 15.8133 12.9892C16.0149 13.0717 16.2258 13.1908 16.4549 13.3467L19.4891 15.5008C19.7274 15.6658 19.8924 15.8583 19.9933 16.0875C20.0849 16.3167 20.1399 16.5458 20.1399 16.8025Z" fill="white"/>
</svg>
